# xmcd
#
# Track frame offsets:
# 150
# 16311
# 28562
# 42235
# 63495
# 83070
# 103490
# 104285
# 123772
# 144046
# 165075
# 185339
# 204787
# 229209
# 229980
# 255879
# 277382
#
# Disc length: 3998 seconds
#
# Revision: 0
# Processed by: cddbd v1.5.1PL0 Copyright (c) Steve Scherf et al.
# Submitted via: Audion 3.0.2 (http://www.panic.com/audion/)
#
DISCID=d80f9c11
DTITLE=Assimil - Russe 3
DYEAR=1900
DGENRE=
TTITLE0=50
TTITLE1=51
TTITLE2=52
TTITLE3=53
TTITLE4=54
TTITLE5=55
TTITLE6=56
TTITLE7=57
TTITLE8=58
TTITLE9=59
TTITLE10=60
TTITLE11=61
TTITLE12=62
TTITLE13=63
TTITLE14=64
TTITLE15=65
TTITLE16=66
EXTD=
EXTT0=
EXTT1=
EXTT2=
EXTT3=
EXTT4=
EXTT5=
EXTT6=
EXTT7=
EXTT8=
EXTT9=
EXTT10=
EXTT11=
EXTT12=
EXTT13=
EXTT14=
EXTT15=
EXTT16=
PLAYORDER=
